<svg xmlns="http://www.w3.org/2000/svg" width="120" height="41" viewBox="0 0 120 41">
    <g fill="none" fill-rule="nonzero">
        <path fill="#A6A6A6" d="M110.135.78H9.535L8.44.78c-.306.002-.61.008-.919.013C6.85.802 6.18.861 5.517.971a6.665 6.665 0 0 0-1.9.627A6.438 6.438 0 0 0 .193 6.3a12.993 12.993 0 0 0-.179 2.002c-.01.306-.01.614-.015.92v23.115c.005.31.006.611.015.922.008.67.068 1.34.18 2.002.11.663.32 1.305.624 1.904.303.598.701 1.143 1.179 1.614.473.477 1.02.875 1.618 1.179a6.7 6.7 0 0 0 1.901.63c.663.11 1.333.169 2.004.178.31.006.613.01.919.01.366.002.728.002 1.095.002h100.6c.36 0 .724 0 1.084-.002.304 0 .617-.004.922-.01.67-.009 1.338-.068 2-.177a6.804 6.804 0 0 0 1.908-.631 6.277 6.277 0 0 0 1.617-1.179 6.395 6.395 0 0 0 1.182-1.614c.302-.6.51-1.242.619-1.904.111-.662.173-1.331.185-2.002.004-.31.004-.612.004-.922.008-.363.008-.725.008-1.094V10.315c0-.366 0-.729-.008-1.091 0-.307 0-.615-.004-.921a13.507 13.507 0 0 0-.185-2.002 6.618 6.618 0 0 0-.62-1.904 6.466 6.466 0 0 0-2.798-2.8 6.768 6.768 0 0 0-1.908-.626c-.661-.11-1.33-.17-2-.177-.305-.005-.618-.01-.922-.013-.36-.002-.725-.002-1.084-.002z"/>
        <path fill="#000" d="M8.445 39.904c-.305 0-.602-.004-.904-.01a12.687 12.687 0 0 1-1.87-.163 5.884 5.884 0 0 1-1.656-.548 5.406 5.406 0 0 1-1.397-1.017 5.32 5.32 0 0 1-1.02-1.396 5.722 5.722 0 0 1-.544-1.658 12.414 12.414 0 0 1-.166-1.875c-.007-.21-.015-.913-.015-.913v-23.1s.009-.692.015-.895a12.37 12.37 0 0 1 .165-1.872 5.755 5.755 0 0 1 .544-1.662c.26-.518.603-.99 1.015-1.398a5.565 5.565 0 0 1 3.055-1.566c.62-.102 1.248-.157 1.876-.164l.902-.013h102.769l.913.013c.623.007 1.244.062 1.858.163a5.938 5.938 0 0 1 1.671.547 5.594 5.594 0 0 1 2.415 2.42c.26.52.441 1.076.535 1.65.104.623.162 1.254.174 1.887.003.283.003.587.003.89.008.375.008.732.008 1.091v20.93c0 .362 0 .717-.008 1.074 0 .326 0 .623-.004.93-.011.621-.069 1.24-.17 1.854a5.739 5.739 0 0 1-.54 1.67 5.48 5.48 0 0 1-1.016 1.385 5.413 5.413 0 0 1-1.4 1.023 5.862 5.862 0 0 1-1.668.55c-.618.1-1.243.155-1.869.163-.293.006-.6.01-.897.01l-1.084.002-101.69-.002z"/>
        <g fill="#FFF">
            <path d="M24.769 21.08a4.949 4.949 0 0 1 2.356-4.152 5.066 5.066 0 0 0-3.99-2.158c-1.68-.176-3.308 1.005-4.164 1.005-.872 0-2.19-.987-3.608-.958a5.315 5.315 0 0 0-4.473 2.728c-1.934 3.348-.491 8.27 1.361 10.976.927 1.325 2.01 2.806 3.428 2.753 1.387-.057 1.905-.884 3.58-.884 1.658 0 2.144.884 3.59.85 1.489-.023 2.426-1.33 3.32-2.668a10.962 10.962 0 0 0 1.52-3.093 4.782 4.782 0 0 1-2.92-4.399zM22.037 12.99a4.872 4.872 0 0 0 1.115-3.49 4.957 4.957 0 0 0-3.208 1.66 4.636 4.636 0 0 0-1.144 3.36 4.1 4.1 0 0 0 3.237-1.53z"/>
            <g>
                <path d="M42.302 27.919H37.57l-1.137 3.356h-2.005l4.484-12.418h2.083l4.483 12.418h-2.039l-1.136-3.356zM38.06 26.37h3.752l-1.85-5.447h-.051l-1.85 5.447zM55.16 26.749c0 2.814-1.506 4.621-3.779 4.621a3.07 3.07 0 0 1-2.848-1.584h-.043v4.485H46.63V22.22h1.8v1.507h.033a3.212 3.212 0 0 1 2.883-1.601c2.298 0 3.813 1.816 3.813 4.622zm-1.91 0c0-1.833-.948-3.038-2.393-3.038-1.42 0-2.375 1.23-2.375 3.038 0 1.824.955 3.046 2.375 3.046 1.445 0 2.393-1.196 2.393-3.046zM65.125 26.749c0 2.814-1.506 4.621-3.779 4.621a3.07 3.07 0 0 1-2.848-1.584h-.043v4.485h-1.859V22.22h1.799v1.507h.034a3.212 3.212 0 0 1 2.883-1.601c2.298 0 3.813 1.816 3.813 4.622zm-1.91 0c0-1.833-.948-3.038-2.393-3.038-1.42 0-2.375 1.23-2.375 3.038 0 1.824.955 3.046 2.375 3.046 1.445 0 2.392-1.196 2.392-3.046zM71.71 27.815c.138 1.232 1.334 2.04 2.97 2.04 1.566 0 2.693-.808 2.693-1.919 0-.963-.68-1.54-2.29-1.936l-1.609-.388c-2.28-.55-3.339-1.617-3.339-3.347 0-2.143 1.867-3.615 4.519-3.615 2.624 0 4.423 1.472 4.483 3.615h-1.876c-.112-1.24-1.136-1.988-2.634-1.988-1.497 0-2.521.757-2.521 1.859 0 .878.654 1.394 2.255 1.79l1.368.336c2.548.602 3.606 1.626 3.606 3.442 0 2.323-1.85 3.778-4.793 3.778-2.754 0-4.614-1.42-4.734-3.667h1.902zM83.346 20.08v2.142h1.722v1.471h-1.722v4.992c0 .775.345 1.136 1.102 1.136.204-.003.408-.018.611-.043v1.463c-.34.064-.686.093-1.032.086-1.833 0-2.548-.688-2.548-2.444v-5.19h-1.316v-1.471h1.316v-2.143h1.867zM86.065 26.749c0-2.849 1.678-4.639 4.294-4.639 2.625 0 4.295 1.79 4.295 4.639 0 2.856-1.661 4.639-4.295 4.639-2.633 0-4.294-1.783-4.294-4.639zm6.695 0c0-1.954-.895-3.107-2.401-3.107-1.506 0-2.4 1.162-2.4 3.107 0 1.962.894 3.106 2.4 3.106 1.506 0 2.401-1.144 2.401-3.106zM96.186 22.222h1.773v1.54h.043a2.16 2.16 0 0 1 2.177-1.635c.214 0 .428.022.637.07v1.738a2.598 2.598 0 0 0-.835-.113 1.873 1.873 0 0 0-1.937 2.083v5.37h-1.858v-9.053zM109.384 28.616c-.25 1.644-1.85 2.772-3.898 2.772-2.634 0-4.269-1.765-4.269-4.596 0-2.84 1.644-4.682 4.19-4.682 2.506 0 4.08 1.721 4.08 4.466v.637h-6.394v.112a2.358 2.358 0 0 0 2.436 2.565 2.048 2.048 0 0 0 2.09-1.274h1.765zm-6.282-2.702h4.526a2.177 2.177 0 0 0-2.22-2.298 2.292 2.292 0 0 0-2.306 2.298z"/>
            </g>
        </g>
        <g fill="#FFF">
            <path d="M37.826 9.51a2.64 2.64 0 0 1 2.808 2.965c0 1.906-1.03 3.002-2.808 3.002h-2.155V9.51h2.155zm-1.228 5.123h1.125a1.876 1.876 0 0 0 1.967-2.146 1.881 1.881 0 0 0-1.967-2.133h-1.125v4.28zM41.68 13.224a2.133 2.133 0 1 1 4.248 0 2.134 2.134 0 1 1-4.247 0zm3.334 0c0-.976-.439-1.547-1.208-1.547-.773 0-1.207.57-1.207 1.547 0 .984.434 1.55 1.207 1.55.77 0 1.208-.57 1.208-1.55zM51.573 15.477h-.922l-.93-3.316h-.07l-.927 3.316h-.913l-1.242-4.503h.902l.806 3.436h.067l.926-3.436h.852l.926 3.436h.07l.803-3.436h.889zM53.854 10.974h.855v.715h.066c.231-.526.771-.848 1.344-.802a1.465 1.465 0 0 1 1.559 1.675v2.915h-.889v-2.692c0-.723-.314-1.083-.972-1.083a1.033 1.033 0 0 0-1.075 1.14v2.635h-.888v-4.503zM59.094 9.216h.888v6.261h-.888zM61.218 13.224a2.133 2.133 0 1 1 4.247 0 2.134 2.134 0 1 1-4.247 0zm3.333 0c0-.976-.439-1.547-1.208-1.547-.773 0-1.207.57-1.207 1.547 0 .984.434 1.55 1.207 1.55.77 0 1.208-.57 1.208-1.55zM66.4 14.204c0-.81.604-1.278 1.676-1.345l1.22-.07V12.4c0-.475-.315-.744-.922-.744-.497 0-.84.182-.939.5h-.86c.09-.773.818-1.269 1.84-1.269 1.128 0 1.765.562 1.765 1.513v3.077h-.855v-.633h-.07c-.291.462-.808.732-1.353.707a1.36 1.36 0 0 1-1.501-1.347zm2.895-.385v-.377l-1.1.07c-.62.042-.9.253-.9.65 0 .405.351.641.834.641a1.062 1.062 0 0 0 1.166-.984zM71.348 13.224c0-1.423.732-2.325 1.87-2.325a1.484 1.484 0 0 1 1.38.79h.067V9.216h.888v6.261h-.851v-.711h-.07a1.563 1.563 0 0 1-1.415.785c-1.145 0-1.869-.901-1.869-2.327zm.918 0c0 .955.45 1.53 1.203 1.53.75 0 1.212-.584 1.212-1.526 0-.939-.468-1.53-1.212-1.53-.748 0-1.203.578-1.203 1.526zM79.23 13.224a2.133 2.133 0 1 1 4.247 0 2.134 2.134 0 1 1-4.247 0zm3.333 0c0-.976-.438-1.547-1.208-1.547-.772 0-1.207.57-1.207 1.547 0 .984.435 1.55 1.207 1.55.77 0 1.208-.57 1.208-1.55zM84.67 10.974h.855v.715h.066c.231-.526.77-.848 1.344-.802a1.465 1.465 0 0 1 1.559 1.675v2.915h-.889v-2.692c0-.723-.314-1.083-.972-1.083a1.033 1.033 0 0 0-1.075 1.14v2.635h-.889v-4.503zM93.515 9.853v1.142h.976v.748h-.976v2.316c0 .471.195.678.637.678.113 0 .226-.007.339-.02v.74c-.16.028-.322.043-.484.045-.988 0-1.381-.348-1.381-1.216v-2.543h-.715v-.748h.715V9.853h.89zM95.705 9.216h.88v2.482h.07a1.386 1.386 0 0 1 1.374-.807 1.483 1.483 0 0 1 1.55 1.679v2.907h-.889V12.79c0-.72-.335-1.083-.963-1.083a1.052 1.052 0 0 0-1.134 1.141v2.63h-.888v-6.26zM104.761 14.261a1.828 1.828 0 0 1-1.95 1.303 2.045 2.045 0 0 1-2.081-2.324 2.077 2.077 0 0 1 2.076-2.353c1.253 0 2.009.856 2.009 2.27v.31h-3.18v.05a1.19 1.19 0 0 0 1.2 1.29 1.08 1.08 0 0 0 1.07-.546h.856zm-3.126-1.45h2.275a1.086 1.086 0 0 0-1.109-1.167 1.152 1.152 0 0 0-1.166 1.166z"/>
        </g>
    </g>
</svg>
