<svg xmlns="http://www.w3.org/2000/svg" viewBox="0 0 130 44" width="130" height="44">
    <g fill="none" fill-rule="evenodd">
        <path stroke="#FFE57B" stroke-width="2" d="M20 43h99V8H20v35z"/>
        <path fill="#FFF" d="M10 4.14v27.336h13.99v-6.12l-7.525-.007V4.141zM87.027 15.027h-1.806V10.35h1.776V4.164h5.7v6.185h4.264v4.654h-4.247v16.473h-5.687zM74.06 31.475h5.637v-21.19H74.06zM74.061 4.581h5.642V.001h-5.642z"/>
        <g fill="#FFF">
            <path d="M35.807 15.274c2.273-.138 4.17 1.156 4.5 3.104h-8.128c.108-1.531 1.832-2.996 3.628-3.104zm3.403 9.833c-.586.7-1.323 1.11-2.19 1.226-.76.1-1.522.068-2.259-.194-1.021-.363-1.854-.985-2.362-2.034-.177-.366-.314-.747-.323-1.21h13.669c.208-1.656.187-3.235-.178-4.79-1.19-5.056-5.57-8.6-10.917-7.707-2.404.401-4.38 1.678-5.876 3.738-1.944 2.675-2.683 5.7-1.987 9.031.727 3.48 2.681 5.95 5.712 7.366 2.582 1.207 5.206 1.19 7.76-.124 2.188-1.128 3.724-2.977 4.777-5.302H39.21zM59.1 25.911c2.09-.007 3.701-1.265 4.275-3.361.398-1.457.256-2.873-.366-4.228-.355-.769-.864-1.405-1.563-1.832-1.776-1.083-4.322-.856-5.814 1.175-.902 1.227-1.128 2.636-.922 4.159.321 2.366 2.17 4.093 4.39 4.087m4.503-13.27v-2.354h5.539s.008 10.53 0 16.322c-.003 1.294.04 4.913-.44 6.684-1.301 4.81-4.796 6.983-9.573 6.983-7.256 0-9.67-7.542-9.67-7.542h6.38c.324.666.793 1.203 1.45 1.534 2.692 1.353 5.882-.54 6.222-3.707.061-.57.078-1.32.11-1.97-.101.16-.187.278-.22.325-1.051 1.561-2.508 2.399-4.26 2.514-3.37.226-6.16-1.052-8.2-3.992-1.274-1.839-1.806-3.964-1.829-6.247-.024-2.614.54-5.035 2.065-7.117 1.694-2.31 3.936-3.533 6.663-3.738 1.39-.104 2.721.112 3.975.795.678.369 1.236.89 1.788 1.51"/>
        </g>
    </g>
</svg>
