<svg width="101px" height="40px" viewBox="0 0 101 40" version="1.1" xmlns="http://www.w3.org/2000/svg" xmlns:xlink="http://www.w3.org/1999/xlink">
    <!-- Generator: Sketch 55.2 (78181) - https://sketchapp.com -->
    <title>legit</title>
    <desc>Created with Sketch.</desc>
    <g id="Page-1" stroke="none" stroke-width="1" fill="none" fill-rule="evenodd">
        <g id="Artboard" transform="translate(-115.000000, -215.000000)">
            <g id="Brand-Elements-/-logo-/-green" transform="translate(115.000000, 215.000000)">
                <g id="Group-11">
                    <polygon id="Fill-1" fill="#FFE57B" points="8.10407558 39.6016471 100.854372 39.6016471 100.854372 6.11517647 8.10407558 6.11517647"></polygon>
                    <polygon id="Fill-2" fill="#004D82" points="0 3.76417647 0 28.6141765 12.728936 28.6141765 12.728936 23.0500588 5.88266279 23.0447647 5.88266279 3.76417647"></polygon>
                    <polygon id="Fill-3" fill="#004D82" points="70.0880692 13.6611765 68.4438831 13.6611765 68.4438831 9.40823529 70.0604703 9.40823529 70.0604703 3.78588235 75.2461157 3.78588235 75.2461157 9.40823529 79.1263948 9.40823529 79.1263948 13.6394118 75.2619703 13.6394118 75.2619703 28.6147059 70.0880692 28.6147059"></polygon>
                    <polygon id="Fill-4" fill="#004D82" points="58.2887442 28.614 63.4180174 28.614 63.4180174 9.35047059 58.2887442 9.35047059"></polygon>
                    <polygon id="Fill-5" fill="#004D82" points="58.2899186 4.16458824 63.4238895 4.16458824 63.4238895 0.000470588235 58.2899186 0.000470588235"></polygon>
                    <g id="Group-10" transform="translate(14.680233, 9.013412)" fill="#004D82">
                        <path d="M8.80150407,4.87205882 C10.8702424,4.74617647 12.5966378,5.92264706 12.8961145,7.69382353 L5.50021337,7.69382353 C5.59886453,6.30205882 7.16730058,4.97029412 8.80150407,4.87205882 L8.80150407,4.87205882 Z M11.8978587,13.8114706 C11.3652599,14.4479412 10.6946669,14.8202941 9.90487035,14.9255882 C9.21313779,15.0173529 8.52081802,14.9873529 7.850225,14.7491176 C6.92067267,14.4197059 6.16317267,13.8538235 5.70045174,12.9002941 C5.5395564,12.5679412 5.41506802,12.2214706 5.40684709,11.8002941 L17.8445273,11.8002941 C18.0341959,10.2944118 18.014818,8.85970588 17.6824576,7.44617647 C16.5990564,2.84911765 12.6142541,-0.372647059 7.749225,0.439705882 C5.56187035,0.803823529 3.76383547,1.965 2.40209709,3.83794118 C0.633422674,6.26911765 -0.0389319767,9.01970588 0.594079651,12.0479412 C1.25586453,15.2114706 3.0339343,17.4561765 5.79146919,18.7438235 C8.1408936,19.8408824 10.5284866,19.8261765 12.8520738,18.6308824 C14.8438878,17.6055882 16.2408587,15.9244118 17.1997715,13.8114706 L11.8978587,13.8114706 Z" id="Fill-6"></path>
                        <path d="M29.9967064,14.5420753 C31.8986773,14.5355882 33.3643517,13.3920588 33.8863808,11.4861765 C34.248689,10.1620588 34.1195029,8.87441176 33.5528459,7.64264706 C33.230468,6.94382353 32.7665727,6.36558824 32.1312122,5.97735294 C30.5152122,4.99323529 28.1980843,5.19970588 26.8410436,7.04558824 C26.020125,8.16147059 25.8140145,9.44205882 26.0019215,10.8261765 C26.2943517,12.9779412 27.9767064,14.5479412 29.9967064,14.5420753 M34.0936657,2.47852941 L34.0936657,0.338529412 L39.1336831,0.338529412 C39.1336831,0.338529412 39.1413169,9.91147059 39.1336831,15.1761765 C39.1313343,16.3526471 39.1700901,19.6426471 38.7332064,21.2532353 C37.5493924,25.6261765 34.3690669,27.6014706 30.0231308,27.6014706 C23.4205494,27.6014706 21.2237994,20.7444118 21.2237994,20.7444118 L27.0283634,20.7444118 C27.3243169,21.3502941 27.7506308,21.8385294 28.3489971,22.1397059 C30.7982471,23.3697059 33.7008227,21.6479412 34.0096948,18.7691176 C34.0654797,18.2508824 34.0813343,17.5697059 34.1101076,16.9785294 C34.0179157,17.1232353 33.9398169,17.2308824 33.9098692,17.2738235 C32.9533052,18.6932353 31.6279738,19.4544118 30.0331134,19.5597059 C26.9678808,19.765 24.4282006,18.6026471 22.5726192,15.9302941 C21.413468,14.2585294 20.9290203,12.3267647 20.908468,10.2508824 C20.8861541,7.875 21.3987878,5.67382353 22.7875378,3.78147059 C24.328375,1.68147059 26.3689273,0.569705882 28.8498866,0.383235294 C30.1141483,0.288529412 31.3261483,0.484411765 32.4670959,1.10558824 C33.0836657,1.44088235 33.5916017,1.91558824 34.0936657,2.47852941" id="Fill-8"></path>
                    </g>
                </g>
            </g>
        </g>
    </g>
</svg>
